PathFileType	4	(X/Y/Z)	/Users/itak/Documents/Research/Walk-IL/dataset/trc/00579_00009.trc
DataRate	CameraRate	NumFrames	NumMarkers	Units	OrigDataRate	OrigDataStartFrame	OrigNumFrames
100.000000	100.000000	4	55	mm	100.000000	127	510
Frame#	Time	RPSI			LPSI			L3			STRN			T10			C7			CLAV			RBAK			LBAK			LSHO			LUPA			LAEL			LAOL			LWTS			LWPS			LFRA			LHTS			RSHO			RUPA			RAEL			RAOL			RWTS			RWPS			RFRA			RIFD			RHTS			RHPS			RBHD			LFHD			RFHD			LBHD			LHIP			RHIP			RASI			LASI			LKNE			LTHI			LANK			LTIP			LTOE			LMT1			LMT5			LHEE			RKNE			RTHI			RANK			RTIP			RTOE			RMT1			RMT5			RHEE			LHPS			LIFD			*53			*54			
		X1	Y1	Z1	X2	Y2	Z2	X3	Y3	Z3	X4	Y4	Z4	X5	Y5	Z5	X6	Y6	Z6	X7	Y7	Z7	X8	Y8	Z8	X9	Y9	Z9	X10	Y10	Z10	X11	Y11	Z11	X12	Y12	Z12	X13	Y13	Z13	X14	Y14	Z14	X15	Y15	Z15	X16	Y16	Z16	X17	Y17	Z17	X18	Y18	Z18	X19	Y19	Z19	X20	Y20	Z20	X21	Y21	Z21	X22	Y22	Z22	X23	Y23	Z23	X24	Y24	Z24	X25	Y25	Z25	X26	Y26	Z26	X27	Y27	Z27	X28	Y28	Z28	X29	Y29	Z29	X30	Y30	Z30	X31	Y31	Z31	X32	Y32	Z32	X33	Y33	Z33	X34	Y34	Z34	X35	Y35	Z35	X36	Y36	Z36	X37	Y37	Z37	X38	Y38	Z38	X39	Y39	Z39	X40	Y40	Z40	X41	Y41	Z41	X42	Y42	Z42	X43	Y43	Z43	X44	Y44	Z44	X45	Y45	Z45	X46	Y46	Z46	X47	Y47	Z47	X48	Y48	Z48	X49	Y49	Z49	X50	Y50	Z50	X51	Y51	Z51	X52	Y52	Z52	X53	Y53	Z53	X54	Y54	Z54	X55	Y55	Z55	

128	1.27	-1151.07080078125	1003.399047851562	-95.963623046875	-1082.865112304688	1003.82568359375	-212.1827392578125	-1107.369750976562	1105.501831054688	-146.6149444580078	-879.0142822265625	1270.729248046875	-38.75672912597656	-1107.048583984375	1230.430297851562	-142.2109375	-1045.010131835938	1497.867919921875	-94.44752502441406	-886.7518920898438	1383.074829101562	-41.55253219604492	-1155.035766601562	1379.270874023438	-50.52130508422852	-1043.470825195312	1451.52587890625	-194.8409576416016	-919.6853637695312	1467.903930664062	-232.9904632568359	-916.6207275390625	1344.658447265625	-318.2419128417969	-924.1807861328125	1124.809692382812	-349.1410827636719	-1022.771728515625	1129.949829101562	-328.3463745117188	-892.681640625	869.0859985351562	-292.0617370605469	-913.9022216796875	855.6441040039062	-375.416259765625	-913.70751953125	1036.181640625	-354.686767578125	-886.1400146484375	789.312255859375	-311.0749816894531	-1055.936767578125	1450.940063476562	68.95089721679688	-1103.22314453125	1386.532592773438	120.1920776367188	-1138.663818359375	1097.293334960938	153.7350158691406	-1183.544067382812	1084.11474609375	110.1991348266602	-1010.130859375	869.1514892578125	151.6434020996094	-1076.729370117188	850.8516845703125	198.5494079589844	-1134.195068359375	1041.29248046875	161.7863159179688	-1016.248291015625	696.5082397460938	147.8449859619141	-994.6397094726562	775.3603515625	171.9803161621094	-1065.184326171875	776.0122680664062	200.0163116455078	-989.465087890625	1665.317016601562	8.241754531860352	-794.3384399414062	1681.791625976562	-61.31453323364258	-862.5910034179688	1676.819213867188	65.99954986572266	-905.740478515625	1668.898193359375	-134.5056610107422	-902.5870971679688	933.0330200195312	-260.8538208007812	-1110.406127929688	920.0623779296875	67.28974914550781	-1003.181579589844	950.162841796875	65.56887817382812	-869.4529418945312	956.4883422851562	-174.8625946044922	-758.8348388671875	530.9638061523438	-96.80961608886719	-802.3162231445312	685.1021728515625	-164.3048858642578	-850.701416015625	60.83873748779297	-167.8429412841797	-818.32373046875	281.6192321777344	-149.2952880859375	-700.2879638671875	79.83740234375	-17.48450469970703	-779.0411376953125	69.15142822265625	-21.13871765136719	-739.693603515625	69.3245849609375	-118.95947265625	-936.179443359375	55.10969161987305	-155.2398681640625	-1092.141845703125	478.8935241699219	-4.272590637207031	-1080.590942382812	763.0037231445312	70.82992553710938	-1210.596435546875	35.67905807495117	-117.6126022338867	-1099.50634765625	336.7488708496094	-36.83864593505859	-994.5484008789062	38.44210052490234	-52.80556488037109	-1031.513427734375	37.92198944091797	-118.6224136352539	-1100.921142578125	38.60041046142578	-39.71590423583984	-1232.518798828125	25.86288642883301	-191.9838409423828	-920.6683349609375	795.130859375	-369.4130554199219	-953.0078125	724.856689453125	-305.3772583007812	nan	nan	nan	nan	nan	nan	
129	1.28	-1147.281616210938	1002.841491699219	-94.31657409667969	-1078.93798828125	1003.313232421875	-210.4288177490234	-1103.483520507812	1104.984008789062	-144.8412780761719	-875.0709228515625	1269.994018554688	-36.59309005737305	-1103.083374023438	1229.947143554688	-140.3904876708984	-1040.708984375	1497.320922851562	-92.64085388183594	-882.67724609375	1382.349731445312	-39.38994979858398	-1150.958740234375	1378.855712890625	-48.89404296875	-1039.0439453125	1450.946533203125	-193.0115966796875	-915.16259765625	1467.15625	-230.9233703613281	-912.0595092773438	1343.86328125	-316.1089477539062	-919.8125	1124.0400390625	-346.9917297363281	-1018.446899414062	1129.276489257812	-326.2405700683594	-888.6639404296875	868.2352905273438	-290.0264282226562	-909.8552856445312	854.8657836914062	-373.3941650390625	-909.4360961914062	1035.384155273438	-352.551513671875	-882.3275756835938	788.4094848632812	-309.0624084472656	-1051.996948242188	1450.4345703125	70.74092864990234	-1099.443237304688	1386.096557617188	121.9347915649414	-1135.193603515625	1096.88134765625	155.3827362060547	-1180.031616210938	1083.669921875	111.8334808349609	-1006.290100097656	868.9519653320312	153.3342742919922	-1072.90576171875	850.4617309570312	200.0865478515625	-1130.668701171875	1040.830322265625	163.4239959716797	-1012.005065917969	696.3042602539062	149.4178161621094	-990.6072387695312	775.1778564453125	173.6387786865234	-1061.1943359375	775.6573486328125	201.5537109375	-985.0066528320312	1664.7099609375	10.28429412841797	-789.8311767578125	1680.905517578125	-59.12973403930664	-858.2306518554688	1676.004150390625	68.10224914550781	-901.167236328125	1668.190795898438	-132.4286956787109	-898.5899658203125	932.7489624023438	-258.9339294433594	-1106.963745117188	919.4252319335938	68.98590850830078	-999.8403930664062	949.4140625	67.31041717529297	-865.5198364257812	956.009033203125	-172.8166809082031	-753.6957397460938	531.5634765625	-94.52131652832031	-797.6209716796875	685.2891235351562	-162.5513000488281	-836.7916870117188	58.84503173828125	-159.0771789550781	-808.5737915039062	280.6361999511719	-143.7525482177734	-686.91650390625	81.65129852294922	-8.690354347229004	-765.5368041992188	70.06016540527344	-12.39771461486816	-725.9872436523438	69.27007293701172	-110.0308837890625	-922.2283325195312	52.27066421508789	-146.5414733886719	-1090.658325195312	478.4107055664062	-3.51781439781189	-1077.59619140625	762.2935180664062	72.23737335205078	-1210.548217773438	35.71115493774414	-117.6556015014648	-1098.528442382812	336.3863525390625	-36.49254989624023	-994.5524291992188	38.43618392944336	-52.79616546630859	-1031.48291015625	37.89379501342773	-118.6207962036133	-1100.891357421875	38.58066558837891	-39.71872711181641	-1232.494995117188	25.93276405334473	-192.0061950683594	-916.7922973632812	794.3632202148438	-367.3997497558594	-949.441162109375	724.1643676757812	-303.2918701171875	nan	nan	nan	nan	nan	nan	
130	1.29	-1143.365600585938	1002.253479003906	-92.60353088378906	-1074.853393554688	1002.77734375	-208.6423797607422	-1099.435424804688	1104.418579101562	-143.0248413085938	-870.9721069335938	1269.234008789062	-34.40834045410156	-1098.985107421875	1229.423950195312	-138.5251159667969	-1036.277587890625	1496.737426757812	-90.80717468261719	-878.4647827148438	1381.598022460938	-37.202392578125	-1146.744018554688	1378.398681640625	-47.23055267333984	-1034.492309570312	1450.318237304688	-191.1536560058594	-910.5321655273438	1466.370849609375	-228.8400115966797	-907.3788452148438	1343.032470703125	-313.9559326171875	-915.2595825195312	1123.234497070312	-344.8189697265625	-1013.931701660156	1128.539916992188	-324.1370544433594	-884.3699340820312	867.3760986328125	-287.9208984375	-905.4955444335938	854.0532836914062	-371.3135375976562	-904.941162109375	1034.5576171875	-350.385498046875	-878.2454223632812	787.4639282226562	-306.9543762207031	-1047.913208007812	1449.895874023438	72.57515716552734	-1095.517456054688	1385.62060546875	123.7173309326172	-1131.564575195312	1096.432250976562	157.0691223144531	-1176.35498046875	1083.189697265625	113.4889450073242	-1002.348449707031	868.6836547851562	155.0600280761719	-1068.98779296875	850.0282592773438	201.6748504638672	-1127.000854492188	1040.332275390625	165.1045837402344	-1007.732482910156	696.0335083007812	151.0400390625	-986.5185546875	774.9190673828125	175.3492126464844	-1057.132080078125	775.2459106445312	203.1429443359375	-980.4459228515625	1664.069580078125	12.3263988494873	-785.197265625	1679.989990234375	-56.87541198730469	-853.7559814453125	1675.16015625	70.2479248046875	-896.4503784179688	1667.466552734375	-130.3154296875	-894.4525756835938	932.4119873046875	-256.9564208984375	-1103.399291992188	918.7483520507812	70.72569274902344	-996.3862915039062	948.6052856445312	69.0628662109375	-861.4578247070312	955.4586791992188	-170.7200317382812	-748.6338500976562	532.0278930664062	-92.24744415283203	-792.8728637695312	685.3610229492188	-160.7898712158203	-822.7603149414062	56.96852874755859	-150.3387908935547	-798.785888671875	279.6774291992188	-138.2423400878906	-673.5809936523438	83.62303161621094	0.1275828033685684	-752.043701171875	71.11193084716797	-3.714970111846924	-712.2205200195312	69.37140655517578	-101.0807952880859	-908.1351928710938	49.53500366210938	-137.9387359619141	-1089.011962890625	477.8892211914062	-2.762211322784424	-1074.485595703125	761.5497436523438	73.68698883056641	-1210.501220703125	35.74529647827148	-117.690055847168	-1097.437133789062	335.9830322265625	-36.13018035888672	-994.563720703125	38.43512344360352	-52.75003051757812	-1031.454711914062	37.86782455444336	-118.6072006225586	-1100.862426757812	38.5544548034668	-39.70737075805664	-1232.466918945312	26.02406311035156	-192.0185394287109	-912.563720703125	793.5635375976562	-365.3208923339844	-945.60302734375	723.4276123046875	-301.1104125976562	nan	nan	nan	nan	nan	nan	
131	1.3	-1139.318603515625	1001.641662597656	-90.83694458007812	-1070.6025390625	1002.227844238281	-206.8317565917969	-1095.213989257812	1103.802978515625	-141.1713714599609	-866.7184448242188	1268.448608398438	-32.19618606567383	-1094.746704101562	1228.861450195312	-136.6207122802734	-1031.71484375	1496.118041992188	-88.94527435302734	-874.1105346679688	1380.822265625	-34.99287796020508	-1142.388671875	1377.898681640625	-45.52861022949219	-1029.813720703125	1449.641967773438	-189.2671508789062	-905.790771484375	1465.547729492188	-226.7436981201172	-902.5790405273438	1342.165893554688	-311.7876586914062	-910.5242309570312	1122.390380859375	-342.6279602050781	-1009.226318359375	1127.738647460938	-322.0336608886719	-879.7976684570312	866.5086669921875	-285.7415771484375	-900.8303833007812	853.2018432617188	-369.1699523925781	-900.22802734375	1033.703002929688	-348.1907043457031	-873.880126953125	786.4808349609375	-304.7519226074219	-1043.682373046875	1449.324584960938	74.45244598388672	-1091.442749023438	1385.101928710938	125.5358276367188	-1127.767700195312	1095.941528320312	158.7960052490234	-1172.505859375	1082.673706054688	115.1671295166016	-998.3092041015625	868.336181640625	156.8219451904297	-1064.979248046875	849.5463256835938	203.3162536621094	-1123.183227539062	1039.797973632812	166.8268280029297	-1003.428771972656	695.685302734375	152.7045745849609	-982.3771362304688	774.5753173828125	177.1106872558594	-1053.006591796875	774.7730712890625	204.7852020263672	-975.7890014648438	1663.397338867188	14.36424446105957	-780.4345703125	1679.049682617188	-54.55345153808594	-849.1680297851562	1674.286987304688	72.43833923339844	-891.5908813476562	1666.726806640625	-128.1653442382812	-890.166015625	932.0231323242188	-254.9190063476562	-1099.723876953125	918.031982421875	72.49822235107422	-992.818359375	947.732421875	70.83055877685547	-857.279541015625	954.8307495117188	-168.5571441650391	-743.6432495117188	532.3509521484375	-89.95847320556641	-788.072021484375	685.309326171875	-159.0063934326172	-808.6549682617188	55.22680282592773	-141.6562042236328	-788.9970092773438	278.7493591308594	-132.7752838134766	-660.3134155273438	85.75579833984375	8.92552375793457	-738.6082763671875	72.31153869628906	4.889518260955811	-698.43310546875	69.65221405029297	-92.15968322753906	-893.952392578125	46.90795516967773	-129.4525756835938	-1087.1865234375	477.3283996582031	-2.005563497543335	-1071.275390625	760.7754516601562	75.17510986328125	-1210.455932617188	35.7813835144043	-117.7129135131836	-1096.221923828125	335.5413208007812	-35.74560546875	-994.5773315429688	38.43245315551758	-52.67591094970703	-1031.427124023438	37.84357452392578	-118.5836334228516	-1100.837158203125	38.52089309692383	-39.67600631713867	-1232.437133789062	26.14345550537109	-192.0173950195312	-907.983642578125	792.7293701171875	-363.1764526367188	-941.4808349609375	722.6519165039062	-298.833984375	nan	nan	nan	nan	nan	nan	
